<svg width="500" height="500" xmlns="http://www.w3.org/2000/svg">
 <circle cx="250" cy="250" r="250" fill="#FFFFFF"/>
 <g>
  <title>Layer 1</title>
  <g stroke="null">
   <path stroke="null" d="m153.62713,94.02255c18.01366,-8.33397 35.78132,-12.12535 54.69371,-11.89742c45.19868,0.54482 90.40823,-0.0327 135.61172,0.20819c35.07173,0.18688 60.42384,24.76654 64.54374,61.88745c3.57376,32.20011 -17.62825,62.88172 -49.48641,71.03745c-5.5033,1.40877 -11.38329,1.60556 -17.09119,1.62214c-46.02631,0.13382 -92.05331,-0.00261 -138.07955,0.14175c-21.92083,0.06879 -40.8642,8.06863 -56.65589,24.42305c-5.86627,6.07528 -6.39497,11.02638 -0.11264,17.31368c15.61247,15.6246 33.75513,24.38915 55.39471,24.41299c46.84847,0.05168 93.69837,-0.20845 140.54511,0.09653c49.02015,0.31914 80.25247,50.74725 59.26583,96.379c-11.05081,24.02806 -29.88497,37.87665 -55.85609,38.04327c-48.90139,0.31376 -97.80633,0.18693 -146.70922,0.03684c-51.91134,-0.15937 -98.30045,-42.80467 -106.97103,-97.09657c-3.31368,-20.7493 -1.45888,-40.61093 4.96908,-60.17146c2.25269,-6.85514 2.57581,-12.99261 0.25648,-20.10913c-18.96341,-58.18489 3.01748,-116.23752 55.68166,-146.32775m-29.59403,199.35075c-2.978,45.45076 29.95021,91.38055 82.82002,89.7994c44.7009,-1.33691 89.46662,-0.18879 134.20352,-0.27043c21.12798,-0.03851 34.69349,-12.36378 35.11141,-31.51563c0.42291,-19.37936 -13.69939,-32.84623 -34.96237,-32.91082c-39.81155,-0.12083 -79.64139,-0.81723 -119.42996,0.19914c-33.93736,0.86698 -65.34611,-5.07754 -91.9572,-29.04182c-3.12005,-2.80969 -5.00103,-2.57932 -5.78541,3.74016m187.83374,-175.94836c-37.38956,0.0205 -74.78582,-0.41981 -112.16687,0.18665c-40.19227,0.65199 -72.8508,33.85448 -75.5756,76.08257c-0.36465,5.65187 -2.2534,12.11591 3.40609,17.32784c1.8145,-1.02166 3.74614,-1.76944 5.30007,-3.03511c24.20776,-19.71651 51.86287,-26.66122 82.01,-26.27359c43.13557,0.55473 86.28325,0.35097 129.42344,0.0674c18.74153,-0.12321 31.85537,-13.88472 31.93216,-32.29943c0.07472,-17.9113 -13.63936,-31.67211 -32.28347,-32.09164c-9.85598,-0.22177 -19.72094,0.00535 -32.04582,0.03531z" fill="#000000"/>
  </g>
 </g>
</svg>